<?xml version="1.0" standalone="no"?>
<!DOCTYPE svg PUBLIC "-//W3C//DTD SVG 20010904//EN"
 "http://www.w3.org/TR/2001/REC-SVG-20010904/DTD/svg10.dtd">
<svg version="1.0" xmlns="http://www.w3.org/2000/svg"
 width="3812.000000pt" height="1128.000000pt" viewBox="0 0 3812.000000 1128.000000"
 preserveAspectRatio="xMidYMid meet">

<g transform="translate(0.000000,1128.000000) scale(0.100000,-0.100000)"
fill="#FFFFFF" stroke="none">
<path d="M35890 9515 c-462 -93 -781 -523 -729 -984 50 -450 406 -786 854
-808 271 -13 489 71 680 262 157 157 238 318 266 530 52 397 -184 797 -561
951 -145 59 -359 80 -510 49z m385 -145 c220 -69 393 -217 486 -416 55 -116
72 -197 72 -334 -1 -139 -24 -235 -83 -349 -100 -192 -281 -339 -490 -397
-101 -29 -311 -26 -410 5 -275 85 -489 312 -546 580 -16 79 -18 235 -3 317 45
246 246 482 492 576 138 53 345 60 482 18z"/>
<path d="M35885 9114 c-22 -2 -64 -7 -92 -10 l-53 -5 0 -440 0 -439 110 0 110
0 0 176 0 176 70 -4 c102 -5 119 -25 171 -198 22 -73 42 -137 45 -142 3 -4 57
-8 120 -8 108 0 114 1 105 18 -5 10 -26 74 -47 143 -20 68 -43 138 -51 154
-19 38 -73 95 -90 95 -23 0 -14 18 13 24 14 4 48 29 74 55 56 56 75 110 66
185 -11 101 -79 170 -198 202 -53 14 -277 26 -353 18z m239 -155 c61 -17 96
-58 96 -112 0 -86 -60 -127 -185 -127 l-75 0 0 119 c0 86 3 121 13 124 22 10
111 7 151 -4z"/>
<path d="M19880 8596 c-142 -31 -248 -86 -334 -172 -204 -203 -220 -530 -38
-760 69 -88 193 -165 322 -200 90 -25 291 -25 380 -1 113 30 206 82 285 161
111 110 165 240 165 399 0 269 -175 490 -445 562 -85 22 -255 28 -335 11z"/>
<path d="M9700 5885 l0 -2335 540 0 540 0 0 2335 0 2335 -540 0 -540 0 0
-2335z"/>
<path d="M25290 5885 l0 -2335 540 0 540 0 2 738 3 737 535 -737 535 -737 668
-1 c532 0 667 3 660 13 -4 6 -329 395 -723 862 -393 468 -720 857 -727 866
-10 12 114 166 717 894 l729 880 -657 3 c-361 1 -662 0 -667 -2 -6 -2 -247
-321 -535 -710 -289 -388 -528 -706 -532 -706 -5 0 -8 578 -8 1285 l0 1285
-540 0 -540 0 0 -2335z"/>
<path d="M2968 8039 c-681 -52 -1173 -369 -1350 -869 -58 -164 -84 -436 -59
-622 51 -381 240 -651 599 -857 171 -98 342 -164 857 -331 405 -131 564 -214
665 -349 55 -72 73 -142 68 -251 -3 -73 -9 -98 -36 -152 -74 -151 -246 -238
-472 -238 -168 0 -288 42 -389 136 -85 78 -161 238 -161 338 l0 26 -575 0
-575 0 0 -47 c0 -64 23 -202 49 -296 179 -635 802 -1018 1661 -1020 107 -1
238 5 290 12 520 67 906 284 1137 638 138 212 203 439 203 713 0 164 -18 275
-65 406 -52 146 -113 241 -235 365 -213 215 -435 329 -1030 529 -327 110 -426
147 -543 207 -244 125 -341 273 -310 473 33 214 189 330 443 330 91 0 211 -28
281 -67 115 -62 206 -193 230 -331 l11 -62 584 0 585 0 -6 53 c-32 267 -98
463 -223 652 -59 90 -225 255 -322 322 -246 168 -559 266 -935 293 -157 11
-222 11 -377 -1z"/>
<path d="M15440 7550 l0 -430 590 0 590 0 0 -1785 0 -1785 540 0 540 0 0 1785
0 1785 585 0 585 0 0 430 0 430 -1715 0 -1715 0 0 -430z"/>
<path d="M33390 7500 l0 -430 -215 0 -215 0 0 -445 0 -445 215 0 215 0 0 -765
c0 -821 3 -896 50 -1081 54 -215 133 -357 272 -490 147 -140 314 -218 575
-270 60 -12 174 -17 486 -21 l407 -5 0 455 0 455 -247 4 c-268 6 -313 13 -377
62 -19 14 -45 47 -57 73 l-24 48 -3 768 -3 767 356 0 355 0 0 445 0 445 -355
0 -355 0 0 430 0 430 -540 0 -540 0 0 -430z"/>
<path d="M6940 7105 c-722 -99 -1264 -548 -1461 -1209 -52 -177 -71 -302 -76
-522 -6 -224 4 -346 43 -523 77 -343 218 -606 453 -842 283 -282 642 -449
1076 -499 115 -13 364 -13 480 0 970 109 1604 820 1605 1798 1 968 -607 1674
-1547 1797 -139 18 -439 18 -573 0z m495 -945 c250 -78 419 -265 491 -546 32
-125 43 -338 24 -476 -47 -354 -248 -603 -550 -684 -89 -24 -281 -24 -370 0
-205 56 -373 208 -456 416 -60 146 -68 198 -68 435 -1 240 5 281 64 432 89
232 278 393 515 439 98 19 260 11 350 -16z"/>
<path d="M22673 7104 c-410 -59 -758 -230 -1007 -495 -241 -255 -392 -583
-452 -984 -20 -135 -23 -459 -5 -595 92 -695 466 -1192 1063 -1414 350 -130
797 -153 1173 -62 479 117 853 416 1066 853 49 102 120 299 134 376 l7 37
-573 -1 -574 0 -44 -91 c-98 -204 -272 -307 -517 -308 -95 0 -213 27 -287 67
-111 61 -222 191 -281 332 -91 214 -109 589 -42 854 58 228 181 394 351 473
91 42 183 58 304 52 225 -12 395 -127 486 -330 l30 -67 573 -1 c469 0 572 2
572 13 0 34 -64 235 -107 338 -88 205 -195 365 -347 514 -249 244 -581 396
-976 445 -115 14 -434 11 -547 -6z"/>
<path d="M30540 7105 c-725 -99 -1243 -548 -1421 -1230 -45 -175 -60 -286 -66
-495 -6 -209 3 -330 38 -510 165 -842 831 -1369 1731 -1370 513 0 944 166
1268 490 123 123 219 255 290 396 46 93 120 290 120 321 0 11 -105 13 -572 11
l-572 -3 -34 -59 c-74 -126 -212 -228 -358 -262 -106 -25 -316 -15 -406 18
-100 38 -172 85 -244 160 -100 106 -156 238 -189 441 l-6 37 1225 0 1224 0 8
88 c12 126 9 382 -5 492 -30 226 -81 401 -176 595 -80 165 -164 283 -290 410
-258 257 -596 418 -991 470 -140 18 -440 18 -574 0z m475 -870 c175 -45 328
-161 400 -304 37 -75 65 -176 65 -243 l0 -38 -676 0 -676 0 7 43 c11 64 60
191 99 255 94 155 250 261 441 298 86 17 255 11 340 -11z"/>
<path d="M11247 7033 c8 -21 328 -780 710 -1688 383 -907 697 -1657 700 -1666
2 -8 -174 -411 -392 -895 -219 -483 -400 -887 -402 -896 -5 -17 27 -18 573
-18 l579 0 1103 2593 c606 1425 1102 2595 1102 2600 0 4 -262 6 -581 5 l-582
-3 -401 -1092 c-220 -601 -403 -1093 -406 -1093 -3 0 -187 493 -409 1095
l-405 1095 -602 0 -603 0 16 -37z"/>
<path d="M19480 5310 l0 -1760 540 0 540 0 0 1760 0 1760 -540 0 -540 0 0
-1760z"/>
</g>
</svg>
